<mxfile host="Electron" modified="2023-08-16T19:01:46.418Z" agent="Mozilla/5.0 (Windows NT 10.0; Win64; x64) AppleWebKit/537.36 (KHTML, like Gecko) draw.io/21.6.8 Chrome/114.0.5735.289 Electron/25.5.0 Safari/537.36" etag="PtouZ7lKIR2nf5ZZ6BVR" version="21.6.8" type="device">
  <diagram name="Page-1" id="74e2e168-ea6b-b213-b513-2b3c1d86103e">
    <mxGraphModel dx="1418" dy="838" grid="1" gridSize="10" guides="1" tooltips="1" connect="1" arrows="1" fold="1" page="1" pageScale="1" pageWidth="2336" pageHeight="1654" background="#FFFFCC" math="0" shadow="0">
      <root>
        <mxCell id="0" />
        <mxCell id="1" parent="0" />
        <mxCell id="57izBxOjl_in-iJPN2Te-3" value="&lt;h2 style=&quot;font-size: 18px;&quot;&gt;Desarrollar un Algoritmo que lea tres nÃºmeros distintos y nos diga cual de ellos es el mayor&lt;/h2&gt;" style="text;html=1;strokeColor=none;fillColor=none;align=left;verticalAlign=middle;whiteSpace=wrap;rounded=1;fontSize=18;fontFamily=Helvetica;sketch=1;curveFitting=1;jiggle=2;" parent="1" vertex="1">
          <mxGeometry x="50" y="40" width="1340" height="30" as="geometry" />
        </mxCell>
        <mxCell id="57izBxOjl_in-iJPN2Te-5" value="&lt;font style=&quot;font-size: 20px;&quot;&gt;Inicio&lt;/font&gt;" style="ellipse;whiteSpace=wrap;html=1;" parent="1" vertex="1">
          <mxGeometry x="640" y="140" width="120" height="80" as="geometry" />
        </mxCell>
        <mxCell id="57izBxOjl_in-iJPN2Te-6" value="&lt;font style=&quot;font-size: 15px;&quot;&gt;Ingrese el numero 1&lt;/font&gt;" style="shape=parallelogram;perimeter=parallelogramPerimeter;whiteSpace=wrap;html=1;fixedSize=1;" parent="1" vertex="1">
          <mxGeometry x="610" y="260" width="180" height="60" as="geometry" />
        </mxCell>
        <mxCell id="57izBxOjl_in-iJPN2Te-7" value="&lt;font style=&quot;font-size: 15px;&quot;&gt;Ingrese el numero 2&lt;/font&gt;" style="shape=parallelogram;perimeter=parallelogramPerimeter;whiteSpace=wrap;html=1;fixedSize=1;" parent="1" vertex="1">
          <mxGeometry x="610" y="450" width="180" height="60" as="geometry" />
        </mxCell>
        <mxCell id="57izBxOjl_in-iJPN2Te-8" value="&lt;font style=&quot;font-size: 15px;&quot;&gt;Ingrese el numero 3&lt;/font&gt;" style="shape=parallelogram;perimeter=parallelogramPerimeter;whiteSpace=wrap;html=1;fixedSize=1;" parent="1" vertex="1">
          <mxGeometry x="610" y="642" width="180" height="60" as="geometry" />
        </mxCell>
        <mxCell id="57izBxOjl_in-iJPN2Te-9" value="num1 = numero 1" style="rounded=1;whiteSpace=wrap;html=1;" parent="1" vertex="1">
          <mxGeometry x="615" y="360" width="170" height="60" as="geometry" />
        </mxCell>
        <mxCell id="57izBxOjl_in-iJPN2Te-10" value="num2 = numero 2" style="rounded=1;whiteSpace=wrap;html=1;" parent="1" vertex="1">
          <mxGeometry x="615" y="550" width="170" height="60" as="geometry" />
        </mxCell>
        <mxCell id="57izBxOjl_in-iJPN2Te-11" value="mayor = numero 3" style="rounded=1;whiteSpace=wrap;html=1;" parent="1" vertex="1">
          <mxGeometry x="615" y="740" width="170" height="60" as="geometry" />
        </mxCell>
        <mxCell id="57izBxOjl_in-iJPN2Te-12" value="" style="endArrow=classic;html=1;rounded=0;entryX=0.5;entryY=0;entryDx=0;entryDy=0;exitX=0.5;exitY=1;exitDx=0;exitDy=0;" parent="1" source="57izBxOjl_in-iJPN2Te-5" target="57izBxOjl_in-iJPN2Te-6" edge="1">
          <mxGeometry width="50" height="50" relative="1" as="geometry">
            <mxPoint x="700" y="630" as="sourcePoint" />
            <mxPoint x="750" y="580" as="targetPoint" />
          </mxGeometry>
        </mxCell>
        <mxCell id="57izBxOjl_in-iJPN2Te-14" value="" style="endArrow=classic;html=1;rounded=0;exitX=0.5;exitY=1;exitDx=0;exitDy=0;" parent="1" source="57izBxOjl_in-iJPN2Te-6" target="57izBxOjl_in-iJPN2Te-9" edge="1">
          <mxGeometry width="50" height="50" relative="1" as="geometry">
            <mxPoint x="700" y="630" as="sourcePoint" />
            <mxPoint x="750" y="580" as="targetPoint" />
          </mxGeometry>
        </mxCell>
        <mxCell id="57izBxOjl_in-iJPN2Te-15" value="" style="endArrow=classic;html=1;rounded=0;exitX=0.5;exitY=1;exitDx=0;exitDy=0;entryX=0.5;entryY=0;entryDx=0;entryDy=0;" parent="1" source="57izBxOjl_in-iJPN2Te-9" target="57izBxOjl_in-iJPN2Te-7" edge="1">
          <mxGeometry width="50" height="50" relative="1" as="geometry">
            <mxPoint x="700" y="630" as="sourcePoint" />
            <mxPoint x="750" y="580" as="targetPoint" />
          </mxGeometry>
        </mxCell>
        <mxCell id="57izBxOjl_in-iJPN2Te-16" value="" style="endArrow=classic;html=1;rounded=0;exitX=0.5;exitY=1;exitDx=0;exitDy=0;entryX=0.5;entryY=0;entryDx=0;entryDy=0;" parent="1" source="57izBxOjl_in-iJPN2Te-7" target="57izBxOjl_in-iJPN2Te-10" edge="1">
          <mxGeometry width="50" height="50" relative="1" as="geometry">
            <mxPoint x="700" y="630" as="sourcePoint" />
            <mxPoint x="750" y="580" as="targetPoint" />
          </mxGeometry>
        </mxCell>
        <mxCell id="57izBxOjl_in-iJPN2Te-19" value="" style="endArrow=classic;html=1;rounded=0;exitX=0.5;exitY=1;exitDx=0;exitDy=0;entryX=0.5;entryY=0;entryDx=0;entryDy=0;" parent="1" source="57izBxOjl_in-iJPN2Te-10" target="57izBxOjl_in-iJPN2Te-8" edge="1">
          <mxGeometry width="50" height="50" relative="1" as="geometry">
            <mxPoint x="700" y="630" as="sourcePoint" />
            <mxPoint x="750" y="580" as="targetPoint" />
          </mxGeometry>
        </mxCell>
        <mxCell id="57izBxOjl_in-iJPN2Te-20" value="" style="endArrow=classic;html=1;rounded=0;exitX=0.5;exitY=1;exitDx=0;exitDy=0;entryX=0.5;entryY=0;entryDx=0;entryDy=0;" parent="1" source="57izBxOjl_in-iJPN2Te-8" target="57izBxOjl_in-iJPN2Te-11" edge="1">
          <mxGeometry width="50" height="50" relative="1" as="geometry">
            <mxPoint x="700" y="630" as="sourcePoint" />
            <mxPoint x="750" y="580" as="targetPoint" />
          </mxGeometry>
        </mxCell>
        <mxCell id="57izBxOjl_in-iJPN2Te-37" value="" style="endArrow=classic;html=1;rounded=0;exitX=0.5;exitY=1;exitDx=0;exitDy=0;entryX=0.5;entryY=0;entryDx=0;entryDy=0;" parent="1" source="57izBxOjl_in-iJPN2Te-11" edge="1">
          <mxGeometry width="50" height="50" relative="1" as="geometry">
            <mxPoint x="700" y="1030" as="sourcePoint" />
            <mxPoint x="699.5" y="827" as="targetPoint" />
          </mxGeometry>
        </mxCell>
        <mxCell id="57izBxOjl_in-iJPN2Te-47" value="&lt;font style=&quot;font-size: 20px;&quot;&gt;Fin&lt;/font&gt;" style="ellipse;whiteSpace=wrap;html=1;" parent="1" vertex="1">
          <mxGeometry x="655" y="1357" width="120" height="80" as="geometry" />
        </mxCell>
        <mxCell id="57izBxOjl_in-iJPN2Te-48" value="" style="endArrow=classic;html=1;rounded=0;entryX=0;entryY=0.5;entryDx=0;entryDy=0;exitX=0.492;exitY=0.875;exitDx=0;exitDy=0;exitPerimeter=0;" parent="1" source="l9UlPoGd8hxk52ZTFXW5-17" edge="1">
          <mxGeometry width="50" height="50" relative="1" as="geometry">
            <mxPoint x="399" y="1329" as="sourcePoint" />
            <mxPoint x="662" y="1397" as="targetPoint" />
            <Array as="points">
              <mxPoint x="390" y="1400" />
            </Array>
          </mxGeometry>
        </mxCell>
        <mxCell id="57izBxOjl_in-iJPN2Te-49" value="" style="endArrow=classic;html=1;rounded=0;entryX=1;entryY=0.5;entryDx=0;entryDy=0;exitX=0.492;exitY=0.863;exitDx=0;exitDy=0;exitPerimeter=0;" parent="1" source="l9UlPoGd8hxk52ZTFXW5-14" target="57izBxOjl_in-iJPN2Te-47" edge="1">
          <mxGeometry width="50" height="50" relative="1" as="geometry">
            <mxPoint x="1209" y="1344" as="sourcePoint" />
            <mxPoint x="750" y="1370" as="targetPoint" />
            <Array as="points">
              <mxPoint x="1080" y="1400" />
            </Array>
          </mxGeometry>
        </mxCell>
        <mxCell id="57izBxOjl_in-iJPN2Te-51" value="" style="endArrow=classic;html=1;rounded=0;entryX=0;entryY=0;entryDx=0;entryDy=0;" parent="1" target="57izBxOjl_in-iJPN2Te-47" edge="1">
          <mxGeometry width="50" height="50" relative="1" as="geometry">
            <mxPoint x="640" y="1230" as="sourcePoint" />
            <mxPoint x="750" y="1370" as="targetPoint" />
            <Array as="points">
              <mxPoint x="640" y="1370" />
            </Array>
          </mxGeometry>
        </mxCell>
        <mxCell id="57izBxOjl_in-iJPN2Te-52" value="" style="endArrow=classic;html=1;rounded=0;entryX=1;entryY=0;entryDx=0;entryDy=0;exitX=0.458;exitY=0.913;exitDx=0;exitDy=0;exitPerimeter=0;" parent="1" source="l9UlPoGd8hxk52ZTFXW5-22" target="57izBxOjl_in-iJPN2Te-47" edge="1">
          <mxGeometry width="50" height="50" relative="1" as="geometry">
            <mxPoint x="914.96" y="1339.04" as="sourcePoint" />
            <mxPoint x="750" y="1370" as="targetPoint" />
            <Array as="points">
              <mxPoint x="795" y="1369" />
            </Array>
          </mxGeometry>
        </mxCell>
        <mxCell id="l9UlPoGd8hxk52ZTFXW5-1" value="num2 &amp;gt; mayor" style="rhombus;whiteSpace=wrap;html=1;" vertex="1" parent="1">
          <mxGeometry x="625" y="825" width="150" height="113" as="geometry" />
        </mxCell>
        <mxCell id="l9UlPoGd8hxk52ZTFXW5-2" value="mayor = num2" style="rounded=1;whiteSpace=wrap;html=1;" vertex="1" parent="1">
          <mxGeometry x="435" y="920" width="170" height="60" as="geometry" />
        </mxCell>
        <mxCell id="l9UlPoGd8hxk52ZTFXW5-3" value="" style="endArrow=classic;html=1;rounded=0;entryX=0.5;entryY=0;entryDx=0;entryDy=0;exitX=0;exitY=0.5;exitDx=0;exitDy=0;" edge="1" parent="1" source="l9UlPoGd8hxk52ZTFXW5-1" target="l9UlPoGd8hxk52ZTFXW5-2">
          <mxGeometry width="50" height="50" relative="1" as="geometry">
            <mxPoint x="740" y="940" as="sourcePoint" />
            <mxPoint x="790" y="890" as="targetPoint" />
            <Array as="points">
              <mxPoint x="520" y="880" />
            </Array>
          </mxGeometry>
        </mxCell>
        <mxCell id="l9UlPoGd8hxk52ZTFXW5-4" value="mayor = num1" style="rounded=1;whiteSpace=wrap;html=1;" vertex="1" parent="1">
          <mxGeometry x="715" y="1040" width="170" height="60" as="geometry" />
        </mxCell>
        <mxCell id="l9UlPoGd8hxk52ZTFXW5-5" value="num1 &amp;gt; mayor" style="rhombus;whiteSpace=wrap;html=1;" vertex="1" parent="1">
          <mxGeometry x="845" y="920" width="150" height="113" as="geometry" />
        </mxCell>
        <mxCell id="l9UlPoGd8hxk52ZTFXW5-6" value="" style="endArrow=classic;html=1;rounded=0;entryX=0.5;entryY=0;entryDx=0;entryDy=0;exitX=1;exitY=0.5;exitDx=0;exitDy=0;" edge="1" parent="1" source="l9UlPoGd8hxk52ZTFXW5-1" target="l9UlPoGd8hxk52ZTFXW5-5">
          <mxGeometry width="50" height="50" relative="1" as="geometry">
            <mxPoint x="750" y="1030" as="sourcePoint" />
            <mxPoint x="800" y="980" as="targetPoint" />
            <Array as="points">
              <mxPoint x="920" y="880" />
            </Array>
          </mxGeometry>
        </mxCell>
        <mxCell id="l9UlPoGd8hxk52ZTFXW5-7" value="" style="endArrow=classic;html=1;rounded=0;exitX=0;exitY=0.5;exitDx=0;exitDy=0;entryX=0.465;entryY=0;entryDx=0;entryDy=0;entryPerimeter=0;" edge="1" parent="1" source="l9UlPoGd8hxk52ZTFXW5-5" target="l9UlPoGd8hxk52ZTFXW5-4">
          <mxGeometry width="50" height="50" relative="1" as="geometry">
            <mxPoint x="750" y="1030" as="sourcePoint" />
            <mxPoint x="800" y="980" as="targetPoint" />
            <Array as="points">
              <mxPoint x="794" y="977" />
            </Array>
          </mxGeometry>
        </mxCell>
        <mxCell id="l9UlPoGd8hxk52ZTFXW5-8" value="mayor = num1" style="rounded=1;whiteSpace=wrap;html=1;" vertex="1" parent="1">
          <mxGeometry x="314" y="1160" width="170" height="60" as="geometry" />
        </mxCell>
        <mxCell id="l9UlPoGd8hxk52ZTFXW5-9" value="num1 &amp;gt; mayor" style="rhombus;whiteSpace=wrap;html=1;" vertex="1" parent="1">
          <mxGeometry x="445" y="1040" width="150" height="113" as="geometry" />
        </mxCell>
        <mxCell id="l9UlPoGd8hxk52ZTFXW5-10" value="" style="endArrow=classic;html=1;rounded=0;exitX=0;exitY=0.5;exitDx=0;exitDy=0;entryX=0.465;entryY=0;entryDx=0;entryDy=0;entryPerimeter=0;" edge="1" parent="1" source="l9UlPoGd8hxk52ZTFXW5-9" target="l9UlPoGd8hxk52ZTFXW5-8">
          <mxGeometry width="50" height="50" relative="1" as="geometry">
            <mxPoint x="349" y="1150" as="sourcePoint" />
            <mxPoint x="399" y="1100" as="targetPoint" />
            <Array as="points">
              <mxPoint x="393" y="1097" />
            </Array>
          </mxGeometry>
        </mxCell>
        <mxCell id="l9UlPoGd8hxk52ZTFXW5-11" value="" style="endArrow=classic;html=1;rounded=0;exitX=0.5;exitY=1;exitDx=0;exitDy=0;entryX=0.5;entryY=0;entryDx=0;entryDy=0;" edge="1" parent="1" source="l9UlPoGd8hxk52ZTFXW5-2" target="l9UlPoGd8hxk52ZTFXW5-9">
          <mxGeometry width="50" height="50" relative="1" as="geometry">
            <mxPoint x="750" y="1060" as="sourcePoint" />
            <mxPoint x="800" y="1010" as="targetPoint" />
          </mxGeometry>
        </mxCell>
        <mxCell id="l9UlPoGd8hxk52ZTFXW5-12" value="Imprimir mayor" style="shape=document;whiteSpace=wrap;html=1;boundedLbl=1;" vertex="1" parent="1">
          <mxGeometry x="580" y="1160" width="120" height="80" as="geometry" />
        </mxCell>
        <mxCell id="l9UlPoGd8hxk52ZTFXW5-13" value="Imprimir mayor" style="shape=document;whiteSpace=wrap;html=1;boundedLbl=1;" vertex="1" parent="1">
          <mxGeometry x="580" y="1160" width="120" height="80" as="geometry" />
        </mxCell>
        <mxCell id="l9UlPoGd8hxk52ZTFXW5-14" value="Imprimir mayor" style="shape=document;whiteSpace=wrap;html=1;boundedLbl=1;" vertex="1" parent="1">
          <mxGeometry x="1020" y="1042" width="120" height="80" as="geometry" />
        </mxCell>
        <mxCell id="l9UlPoGd8hxk52ZTFXW5-15" value="" style="endArrow=classic;html=1;rounded=0;exitX=1;exitY=0.5;exitDx=0;exitDy=0;entryX=0.5;entryY=0;entryDx=0;entryDy=0;" edge="1" parent="1" source="l9UlPoGd8hxk52ZTFXW5-9" target="l9UlPoGd8hxk52ZTFXW5-13">
          <mxGeometry width="50" height="50" relative="1" as="geometry">
            <mxPoint x="750" y="1060" as="sourcePoint" />
            <mxPoint x="800" y="1010" as="targetPoint" />
            <Array as="points">
              <mxPoint x="640" y="1097" />
            </Array>
          </mxGeometry>
        </mxCell>
        <mxCell id="l9UlPoGd8hxk52ZTFXW5-17" value="Imprimir mayor" style="shape=document;whiteSpace=wrap;html=1;boundedLbl=1;" vertex="1" parent="1">
          <mxGeometry x="331" y="1260" width="120" height="80" as="geometry" />
        </mxCell>
        <mxCell id="l9UlPoGd8hxk52ZTFXW5-18" value="" style="endArrow=classic;html=1;rounded=0;exitX=0.453;exitY=0.983;exitDx=0;exitDy=0;entryX=0.5;entryY=0;entryDx=0;entryDy=0;exitPerimeter=0;" edge="1" parent="1" source="l9UlPoGd8hxk52ZTFXW5-8" target="l9UlPoGd8hxk52ZTFXW5-17">
          <mxGeometry width="50" height="50" relative="1" as="geometry">
            <mxPoint x="480" y="1380" as="sourcePoint" />
            <mxPoint x="881" y="1170" as="targetPoint" />
          </mxGeometry>
        </mxCell>
        <mxCell id="l9UlPoGd8hxk52ZTFXW5-21" value="" style="endArrow=classic;html=1;rounded=0;entryX=0.5;entryY=0;entryDx=0;entryDy=0;exitX=1;exitY=0.5;exitDx=0;exitDy=0;" edge="1" parent="1" source="l9UlPoGd8hxk52ZTFXW5-5" target="l9UlPoGd8hxk52ZTFXW5-14">
          <mxGeometry width="50" height="50" relative="1" as="geometry">
            <mxPoint x="750" y="1060" as="sourcePoint" />
            <mxPoint x="800" y="1010" as="targetPoint" />
            <Array as="points">
              <mxPoint x="1080" y="977" />
            </Array>
          </mxGeometry>
        </mxCell>
        <mxCell id="l9UlPoGd8hxk52ZTFXW5-22" value="Imprimir mayor" style="shape=document;whiteSpace=wrap;html=1;boundedLbl=1;" vertex="1" parent="1">
          <mxGeometry x="740" y="1160" width="120" height="80" as="geometry" />
        </mxCell>
        <mxCell id="l9UlPoGd8hxk52ZTFXW5-23" value="" style="endArrow=classic;html=1;rounded=0;entryX=0.5;entryY=0;entryDx=0;entryDy=0;" edge="1" parent="1" target="l9UlPoGd8hxk52ZTFXW5-22">
          <mxGeometry width="50" height="50" relative="1" as="geometry">
            <mxPoint x="800" y="1100" as="sourcePoint" />
            <mxPoint x="800" y="1010" as="targetPoint" />
          </mxGeometry>
        </mxCell>
      </root>
    </mxGraphModel>
  </diagram>
</mxfile>
